# xmcd
#
# Track frame offsets: 
#        150
#        31350
#        59622
#        72375
#        96992
#        105547
#        110607
#        142602
#        168300
#        198460
#        207815
#
# Disc length: 3326 seconds
#
# Revision: 37
# Processed by: cddbd v1.5.2PL0 Copyright (c) Steve Scherf et al.
# Submitted via: ExactAudioCopy v1.3
#
DISCID=9b0cfc0b
DTITLE=Dead Can Dance - Into The Labyrinth
DYEAR=1989
DGENRE=Gothic
TTITLE0=Yulunga (spirit dance)
TTITLE1=The Ubiquitous Mr. Lovegrove
TTITLE2=The Wind That Shakes The Barley
TTITLE3=The Carnival Is Over
TTITLE4=Ariadne
TTITLE5=Saldek
TTITLE6=Towards The Within
TTITLE7=Tell Me About The Forest (you once called home)
TTITLE8=The Spider's Stratagem
TTITLE9=Emmeleia
TTITLE10=How Fortunate The Man With None
EXTD=YEAR: 1989
EXTT0=
EXTT1=
EXTT2=
EXTT3=
EXTT4=
EXTT5=
EXTT6=
EXTT7=
EXTT8=
EXTT9=
EXTT10=
PLAYORDER=
